<svg preserveAspectRatio="none" width="100%" height="100%" overflow="visible" style="display: block;" viewBox="0 0 1169.09 330.819" fill="none" xmlns="http://www.w3.org/2000/svg">
<g id="Group">
<path id="Vector" d="M179.479 183.736V179.716C179.479 165.055 175.932 154.887 168.601 149.448C161.271 144.009 148.029 141.172 129.111 141.172H17.2621V89.622H129.111C159.143 89.622 180.188 91.2773 192.011 94.5878C203.835 97.8983 214.239 104.756 222.989 114.924C231.738 125.092 237.65 136.206 240.96 147.793C244.271 159.616 245.926 175.223 245.926 195.086V330.819H106.41C79.453 330.819 61.4815 330.109 52.7322 328.927C43.9829 327.508 33.1054 322.069 19.8633 312.611C6.62109 302.916 0 285.18 0 258.933C0 242.143 4.01994 227.246 11.8234 214.713C19.8633 202.18 30.0314 193.904 42.5641 189.884C55.0969 185.864 73.7778 183.972 98.6069 183.972H179.715L179.479 183.736ZM179.479 235.049H91.7493C75.1966 235.049 66.9203 242.616 66.9203 257.514C66.9203 265.081 69.7579 270.756 75.1966 274.067C80.6354 277.377 89.8576 279.032 102.627 279.032H179.479V235.049Z" fill="var(--fill-0, black)"/>
<path id="Vector_2" d="M369.125 330.581H302.678V0H369.125V330.581Z" fill="var(--fill-0, black)"/>
<path id="Vector_3" d="M533.943 255.386L601.336 89.622H671.567L567.521 330.582H496.345L400.339 89.622H472.698L534.179 255.386H533.943Z" fill="var(--fill-0, black)"/>
<path id="Vector_4" d="M898.812 183.73V235.28H759.296C759.296 251.36 764.026 262.71 773.248 269.331C782.47 275.952 797.368 279.263 817.704 279.263H898.812V330.813H810.61C791.456 330.813 775.849 329.158 763.789 325.847C751.729 322.537 735.65 313.314 715.786 297.944C695.923 282.574 685.755 252.542 685.755 208.086C685.755 186.331 689.775 166.468 698.051 148.733C706.328 130.998 718.388 116.574 734.467 105.932C750.547 95.2914 774.194 89.8527 805.408 89.8527H898.576V141.403H810.373C792.165 141.403 779.633 144.477 772.302 150.388C764.972 156.537 760.479 167.65 758.824 183.967H898.339L898.812 183.73Z" fill="var(--fill-0, black)"/>
<path id="Vector_5" d="M1158.22 89.622V141.172H1040.46C1025.56 141.172 1015.86 142.591 1010.9 145.428C1006.17 148.266 1003.8 153.941 1003.8 162.217C1003.8 171.44 1006.64 177.588 1012.55 180.898C1018.23 184.209 1029.81 185.864 1046.84 185.864H1085.86C1112.34 185.864 1132.68 191.776 1147.34 203.836C1161.76 215.659 1169.09 232.921 1169.09 254.913C1169.09 270.047 1165.55 284.235 1158.22 297.477C1150.89 310.482 1142.14 319.468 1131.97 323.961C1121.8 328.69 1103.12 330.819 1075.93 330.819H938.775V279.269H1087.75C1098.63 277.614 1104.07 270.756 1104.07 258.696C1104.07 249.237 1101.46 242.616 1095.79 239.542C1090.35 236.232 1079.71 234.576 1063.87 234.576H1023.19C1007.35 234.576 995.054 233.631 986.305 231.739C977.555 229.847 969.279 225.827 961.476 219.679C953.672 213.531 947.287 205.018 942.322 194.377C937.356 183.5 934.991 171.913 934.991 159.853C934.991 134.787 940.903 117.762 952.963 108.539C965.023 99.3172 974.954 93.8784 982.758 92.2231C990.561 90.5678 1001.67 89.8584 1016.1 89.8584H1157.74L1158.22 89.622Z" fill="var(--fill-0, black)"/>
</g>
</svg>
