<svg preserveAspectRatio="none" width="100%" height="100%" overflow="visible" style="display: block;" viewBox="0 0 1410.76 415.952" fill="none" xmlns="http://www.w3.org/2000/svg">
<g id="Group">
<path id="Vector" d="M246.162 89.6269V328.459C246.162 355.18 241.197 374.57 231.265 386.866C221.333 399.163 210.929 406.966 200.288 410.513C189.647 414.06 174.04 415.952 153.467 415.952H21.5185V364.402H144.718C158.67 364.402 167.892 362.51 172.621 358.49C177.35 354.47 179.715 346.667 179.715 335.08V330.587H118.707C99.3163 330.587 83.2365 328.695 70.7037 324.675C58.171 320.655 43.2735 310.724 26.0114 294.408C8.74929 278.328 3.66326e-08 249.952 3.66326e-08 209.279C3.66326e-08 168.607 10.4046 140.704 31.2137 120.131C52.0228 99.5585 82.2906 89.3904 122.254 89.3904H245.926L246.162 89.6269ZM179.952 141.177H125.091C87.02 141.177 68.1026 164.351 68.1026 210.462C68.1026 256.573 88.2023 279.274 128.402 279.274H179.952V141.177Z" fill="var(--fill-0, black)"/>
<path id="Vector_2" d="M472.934 183.737V179.717C472.934 165.056 469.387 154.888 462.057 149.449C454.726 144.011 441.484 141.173 422.566 141.173H310.717V89.6231H422.566C452.598 89.6231 473.643 91.2784 485.467 94.5889C497.29 97.8995 507.695 104.757 516.444 114.925C525.193 125.093 531.105 136.207 534.416 147.794C537.726 159.617 539.381 175.224 539.381 195.088V330.82H399.866C372.908 330.82 354.937 330.11 346.188 328.928C337.438 327.509 326.561 322.07 313.319 312.612C300.076 302.917 293.455 285.182 293.455 258.934C293.455 242.145 297.475 227.247 305.279 214.714C313.319 202.182 323.487 193.905 336.019 189.885C348.552 185.865 367.233 183.974 392.062 183.974H473.17L472.934 183.737ZM472.934 235.051H385.205C368.652 235.051 360.376 242.617 360.376 257.515C360.376 265.082 363.213 270.757 368.652 274.068C374.091 277.378 383.313 279.033 396.082 279.033H472.934V235.051Z" fill="var(--fill-0, black)"/>
<path id="Vector_3" d="M596.134 89.6231H751.73L752.912 141.173H662.345V330.82H595.898V89.6231H596.134Z" fill="var(--fill-0, black)"/>
<path id="Vector_4" d="M1004.75 89.6231V141.173H925.533C900.704 141.173 882.969 146.612 871.855 157.253C860.741 167.894 855.302 185.392 855.302 209.512C855.302 233.632 861.45 251.603 873.983 262.717C886.279 273.831 906.142 279.27 933.1 279.27H1004.99V330.82H914.419C890.299 330.82 871.145 328.455 856.957 323.489C842.769 318.523 827.635 307.173 811.556 289.674C795.476 271.939 787.436 244.982 787.436 208.33C787.436 166.475 796.185 138.099 813.684 123.201C831.182 108.304 846.553 99.0818 860.031 95.5348C873.51 91.9878 891.482 90.096 914.182 90.096H1004.75V89.6231Z" fill="var(--fill-0, black)"/>
<path id="Vector_5" d="M1051.1 64.3192V0.00012207H1117.54V64.3192H1051.1ZM1051.1 89.1483H1117.54V330.818H1051.1V89.1483Z" fill="var(--fill-0, black)"/>
<path id="Vector_6" d="M1344.32 183.737V179.717C1344.32 165.056 1340.77 154.888 1333.44 149.449C1326.11 144.011 1312.87 141.173 1293.95 141.173H1182.1V89.6231H1293.95C1323.98 89.6231 1345.03 91.2784 1356.85 94.5889C1368.67 97.8995 1379.08 104.757 1387.83 114.925C1396.58 125.093 1402.49 136.207 1405.8 147.794C1409.11 159.617 1410.76 175.224 1410.76 195.088V330.82H1271.25C1244.29 330.82 1226.32 330.11 1217.57 328.928C1208.82 327.509 1197.94 322.07 1184.7 312.612C1171.46 302.917 1164.84 285.182 1164.84 258.934C1164.84 242.145 1168.86 227.247 1176.66 214.714C1184.7 202.182 1194.87 193.905 1207.4 189.885C1219.94 185.865 1238.62 183.974 1263.45 183.974H1344.55L1344.32 183.737ZM1344.32 235.051H1256.59C1240.03 235.051 1231.76 242.617 1231.76 257.515C1231.76 265.082 1234.6 270.757 1240.03 274.068C1245.47 277.378 1254.7 279.033 1267.47 279.033H1344.32V235.051Z" fill="var(--fill-0, black)"/>
</g>
</svg>
