<svg width="1512" height="627" viewBox="0 0 1512 627" fill="none" xmlns="http://www.w3.org/2000/svg">
<path d="M196.162 89.6271V328.459C196.162 355.18 191.197 374.57 181.265 386.867C171.333 399.163 160.929 406.966 150.288 410.513C139.647 414.06 124.04 415.952 103.467 415.952H-28.4815V364.402H94.718C108.67 364.402 117.892 362.51 122.621 358.49C127.35 354.47 129.715 346.667 129.715 335.08V330.587H68.7066C49.3163 330.587 33.2365 328.696 20.7037 324.676C8.17096 320.656 -6.72648 310.724 -23.9886 294.408C-41.2507 278.328 -50 249.952 -50 209.28C-50 168.607 -39.5954 140.704 -18.7863 120.131C2.02281 99.5587 32.2906 89.3906 72.2536 89.3906H195.926L196.162 89.6271ZM129.952 141.177H75.0912C37.02 141.177 18.1026 164.351 18.1026 210.462C18.1026 256.573 38.2023 279.274 78.4018 279.274H129.952V141.177Z" fill="black"/>
<path d="M422.934 183.737V179.717C422.934 165.056 419.387 154.888 412.057 149.449C404.726 144.011 391.484 141.173 372.566 141.173H260.717V89.623H372.566C402.598 89.623 423.643 91.2783 435.467 94.5889C447.29 97.8994 457.695 104.757 466.444 114.925C475.193 125.093 481.105 136.207 484.416 147.794C487.726 159.617 489.381 175.224 489.381 195.087V330.82H349.866C322.908 330.82 304.937 330.11 296.188 328.928C287.438 327.509 276.561 322.07 263.319 312.612C250.076 302.917 243.455 285.182 243.455 258.934C243.455 242.144 247.475 227.247 255.279 214.714C263.319 202.181 273.487 193.905 286.019 189.885C298.552 185.865 317.233 183.974 342.062 183.974H423.17L422.934 183.737ZM422.934 235.05H335.205C318.652 235.05 310.376 242.617 310.376 257.515C310.376 265.082 313.213 270.757 318.652 274.068C324.091 277.378 333.313 279.033 346.082 279.033H422.934V235.05Z" fill="black"/>
<path d="M546.134 89.623H701.73L702.912 141.173H612.345V330.82H545.898V89.623H546.134Z" fill="black"/>
<path d="M954.749 89.623V141.173H875.533C850.704 141.173 832.969 146.612 821.855 157.253C810.741 167.894 805.302 185.392 805.302 209.512C805.302 233.632 811.45 251.603 823.983 262.717C836.279 273.831 856.142 279.27 883.1 279.27H954.986V330.82H864.419C840.299 330.82 821.145 328.455 806.957 323.489C792.769 318.523 777.635 307.173 761.556 289.674C745.476 271.939 737.436 244.982 737.436 208.33C737.436 166.475 746.185 138.099 763.684 123.201C781.182 108.304 796.553 99.0817 810.031 95.5347C823.51 91.9877 841.482 90.096 864.182 90.096H954.749V89.623Z" fill="black"/>
<path d="M1001.1 64.3191V0H1067.54V64.3191H1001.1ZM1001.1 89.1482H1067.54V330.818H1001.1V89.1482Z" fill="black"/>
<path d="M1294.32 183.737V179.717C1294.32 165.056 1290.77 154.888 1283.44 149.449C1276.11 144.011 1262.87 141.173 1243.95 141.173H1132.1V89.623H1243.95C1273.98 89.623 1295.03 91.2783 1306.85 94.5889C1318.67 97.8994 1329.08 104.757 1337.83 114.925C1346.58 125.093 1352.49 136.207 1355.8 147.794C1359.11 159.617 1360.76 175.224 1360.76 195.087V330.82H1221.25C1194.29 330.82 1176.32 330.11 1167.57 328.928C1158.82 327.509 1147.94 322.07 1134.7 312.612C1121.46 302.917 1114.84 285.182 1114.84 258.934C1114.84 242.144 1118.86 227.247 1126.66 214.714C1134.7 202.181 1144.87 193.905 1157.4 189.885C1169.94 185.865 1188.62 183.974 1213.45 183.974H1294.55L1294.32 183.737ZM1294.32 235.05H1206.59C1190.03 235.05 1181.76 242.617 1181.76 257.515C1181.76 265.082 1184.6 270.757 1190.03 274.068C1195.47 277.378 1204.7 279.033 1217.47 279.033H1294.32V235.05Z" fill="black"/>
<path d="M537.385 479.319V475.299C537.385 460.638 533.838 450.47 526.507 445.031C519.177 439.593 505.935 436.755 487.017 436.755H375.168V385.205H487.017C517.049 385.205 538.094 386.86 549.918 390.171C561.741 393.481 572.146 400.339 580.895 410.507C589.644 420.675 595.556 431.789 598.866 443.376C602.177 455.199 603.832 470.806 603.832 490.669V626.402H464.316C437.359 626.402 419.388 625.692 410.638 624.51C401.889 623.091 391.012 617.652 377.769 608.194C364.527 598.499 357.906 580.764 357.906 554.516C357.906 537.727 361.926 522.829 369.729 510.296C377.769 497.764 387.938 489.487 400.47 485.467C413.003 481.447 431.684 479.556 456.513 479.556H537.621L537.385 479.319ZM537.385 530.632H449.655C433.103 530.632 424.826 538.199 424.826 553.097C424.826 560.664 427.664 566.339 433.103 569.65C438.541 572.96 447.764 574.615 460.533 574.615H537.385V530.632Z" fill="black"/>
<path d="M727.031 626.164H660.584V295.583H727.031V626.164Z" fill="black"/>
<path d="M891.849 550.969L959.242 385.205H1029.47L925.428 626.165H854.251L758.245 385.205H830.604L892.086 550.969H891.849Z" fill="black"/>
<path d="M1256.72 479.314V530.864H1117.2C1117.2 546.944 1121.93 558.294 1131.15 564.915C1140.38 571.536 1155.27 574.847 1175.61 574.847H1256.72V626.397H1168.52C1149.36 626.397 1133.76 624.741 1121.7 621.431C1109.64 618.12 1093.56 608.898 1073.69 593.528C1053.83 578.157 1043.66 548.126 1043.66 503.67C1043.66 481.915 1047.68 462.052 1055.96 444.317C1064.23 426.582 1076.29 412.157 1092.37 401.516C1108.45 390.875 1132.1 385.437 1163.31 385.437H1256.48V436.986H1168.28C1150.07 436.986 1137.54 440.061 1130.21 445.972C1122.88 452.12 1118.38 463.234 1116.73 479.551H1256.25L1256.72 479.314Z" fill="black"/>
<path d="M1516.12 385.205V436.755H1398.36C1383.46 436.755 1373.77 438.174 1368.8 441.011C1364.07 443.849 1361.71 449.524 1361.71 457.801C1361.71 467.023 1364.55 473.171 1370.46 476.481C1376.13 479.792 1387.72 481.447 1404.75 481.447H1443.76C1470.25 481.447 1490.58 487.359 1505.24 499.419C1519.67 511.242 1527 528.504 1527 550.496C1527 565.63 1523.45 579.818 1516.12 593.06C1508.79 606.066 1500.04 615.051 1489.87 619.544C1479.71 624.274 1461.03 626.402 1433.83 626.402H1296.68V574.852H1445.66C1456.53 573.197 1461.97 566.339 1461.97 554.279C1461.97 544.821 1459.37 538.199 1453.7 535.125C1448.26 531.815 1437.62 530.16 1421.77 530.16H1381.1C1365.26 530.16 1352.96 529.214 1344.21 527.322C1335.46 525.43 1327.19 521.41 1319.38 515.262C1311.58 509.114 1305.19 500.601 1300.23 489.96C1295.26 479.083 1292.9 467.496 1292.9 455.436C1292.9 430.37 1298.81 413.345 1310.87 404.122C1322.93 394.9 1332.86 389.461 1340.66 387.806C1348.47 386.151 1359.58 385.442 1374.01 385.442H1515.65L1516.12 385.205Z" fill="black"/>
</svg>
