<svg preserveAspectRatio="none" width="100%" height="100%" overflow="visible" style="display: block;" viewBox="0 0 343 64.1523" fill="none" xmlns="http://www.w3.org/2000/svg">
<g id="Group 1">
<path id="Vector" d="M343 0H0V31.6992H343V0Z" fill="var(--fill-0, #FFDC2E)"/>
<path id="Vector_2" d="M50.4323 17.6777V44.0246C50.4323 46.9646 49.9046 49.1131 48.8115 50.47C47.7184 51.8269 46.5877 52.6939 45.3815 53.0708C44.2131 53.4854 42.4792 53.6739 40.2177 53.6739H25.6307V47.9823H39.2377C40.7831 47.9823 41.8007 47.7562 42.3284 47.3416C42.8561 46.9269 43.12 46.06 43.12 44.7408V44.2508H36.4107C34.2623 44.2508 32.4907 44.0246 31.0961 43.61C29.7015 43.1577 28.0807 42.0646 26.1584 40.2931C24.2361 38.5216 23.2938 35.3931 23.2938 30.9077C23.2938 26.4223 24.4246 23.3316 26.7238 21.07C29.0231 18.8085 32.3777 17.6777 36.7877 17.6777H50.4323ZM43.0823 23.3316H37.0138C32.83 23.3316 30.7192 25.8946 30.7192 30.9831C30.7192 36.0716 32.9431 38.5592 37.3907 38.5592H43.0823V23.3316Z" fill="var(--fill-0, #232323)"/>
<path id="Vector_3" d="M75.4223 28.0431V27.6285C75.4223 26.0077 75.0077 24.8769 74.2162 24.2739C73.4246 23.6708 71.9546 23.3692 69.8438 23.3692H57.4808V17.6777H69.8438C73.1608 17.6777 75.46 17.8662 76.7792 18.2431C78.0985 18.62 79.2292 19.3362 80.2092 20.4669C81.1892 21.5977 81.83 22.8039 82.2069 24.0854C82.5838 25.3669 82.7346 27.1008 82.7346 29.2869V44.2508H67.3185C64.3408 44.2508 62.3431 44.1754 61.4008 44.0246C60.4208 43.8739 59.2146 43.2708 57.7823 42.2154C56.3123 41.16 55.5962 39.2 55.5962 36.2977C55.5962 34.4508 56.0485 32.7923 56.9154 31.4354C57.7823 30.0408 58.9131 29.1362 60.3077 28.6839C61.7023 28.2316 63.7377 28.0431 66.4892 28.0431H75.46H75.4223ZM75.4223 33.7346H65.7354C63.9262 33.7346 63.0215 34.5639 63.0215 36.2223C63.0215 37.0516 63.3231 37.6923 63.9261 38.0316C64.5292 38.4085 65.5469 38.5969 66.9415 38.5969H75.4223V33.7346Z" fill="var(--fill-0, #232323)"/>
<path id="Vector_4" d="M89.0292 17.6777H106.217L106.33 23.3692H96.3415V44.2885H89.0292V17.6777Z" fill="var(--fill-0, #232323)"/>
<path id="Vector_5" d="M134.109 17.6777V23.3692H125.365C122.651 23.3692 120.653 23.9723 119.447 25.1408C118.241 26.3092 117.6 28.2316 117.6 30.9077C117.6 33.5839 118.279 35.5439 119.635 36.7877C120.992 37.9939 123.179 38.6346 126.156 38.6346H134.072V44.3262H124.083C121.407 44.3262 119.296 44.0623 117.751 43.4969C116.168 42.9692 114.509 41.6877 112.738 39.7654C110.966 37.8054 110.099 34.8277 110.099 30.7946C110.099 26.1585 111.079 23.03 113.002 21.4092C114.924 19.7885 116.62 18.7331 118.128 18.3562C119.598 17.9416 121.595 17.7531 124.121 17.7531H134.109V17.6777Z" fill="var(--fill-0, #232323)"/>
<path id="Vector_6" d="M139.235 14.8885V7.80233H146.548V14.8885H139.235ZM139.235 17.6023H146.548V44.2508H139.235V17.6023Z" fill="var(--fill-0, #232323)"/>
<path id="Vector_7" d="M171.613 28.0431V27.6285C171.613 26.0077 171.199 24.8769 170.407 24.2739C169.615 23.6708 168.145 23.3692 166.035 23.3692H153.672V17.6777H166.035C169.352 17.6777 171.651 17.8662 172.97 18.2431C174.289 18.62 175.42 19.3362 176.4 20.4669C177.38 21.5977 178.021 22.8039 178.398 24.0854C178.775 25.3669 178.925 27.1008 178.925 29.2869V44.2508H163.509C160.532 44.2508 158.534 44.1754 157.592 44.0246C156.612 43.8739 155.405 43.2708 153.973 42.2154C152.503 41.16 151.787 39.2 151.787 36.2977C151.787 34.4508 152.239 32.7923 153.106 31.4354C153.973 30.0408 155.104 29.1362 156.499 28.6839C157.893 28.2316 159.929 28.0431 162.68 28.0431H171.651H171.613ZM171.613 33.7346H161.926C160.117 33.7346 159.212 34.5639 159.212 36.2223C159.212 37.0516 159.514 37.6923 160.117 38.0316C160.72 38.4085 161.738 38.5969 163.132 38.5969H171.613V33.7346Z" fill="var(--fill-0, #232323)"/>
<g id="Group">
<path id="Vector_8" d="M218.691 27.8169V27.3646C218.691 25.7438 218.276 24.613 217.485 23.9723C216.693 23.3315 215.223 23.03 213.075 23.03H200.636V17.3007H213.075C216.429 17.3007 218.766 17.4892 220.085 17.8661C221.405 18.243 222.573 18.9969 223.515 20.1277C224.495 21.2584 225.174 22.5023 225.513 23.7838C225.89 25.103 226.078 26.8369 226.078 29.0607V44.1754H210.549C207.534 44.1754 205.536 44.1 204.556 43.9492C203.576 43.7984 202.37 43.1954 200.9 42.14C199.43 41.0846 198.714 39.0869 198.714 36.1846C198.714 34.3 199.166 32.6792 200.033 31.2469C200.9 29.8523 202.068 28.91 203.463 28.4953C204.858 28.043 206.931 27.8169 209.682 27.8169H218.728H218.691ZM218.691 33.5461H208.928C207.081 33.5461 206.177 34.3753 206.177 36.0715C206.177 36.9384 206.478 37.5415 207.081 37.9184C207.685 38.2954 208.702 38.4838 210.135 38.4838H218.691V33.5838V33.5461Z" fill="var(--fill-0, #232323)"/>
<path id="Vector_9" d="M239.761 44.1753H232.373V7.38765H239.761V44.1753Z" fill="var(--fill-0, #232323)"/>
<path id="Vector_10" d="M258.117 35.8077L265.618 17.3385H273.458L261.886 44.1754H253.971L243.266 17.3385H251.295L258.117 35.8077Z" fill="var(--fill-0, #232323)"/>
<path id="Vector_11" d="M298.749 27.8169V33.5461H283.22C283.22 35.3176 283.748 36.5992 284.765 37.353C285.783 38.1069 287.442 38.4838 289.741 38.4838H298.787V44.213H288.987C286.839 44.213 285.105 44.0245 283.785 43.6476C282.429 43.2707 280.657 42.253 278.433 40.5192C276.209 38.823 275.116 35.4684 275.116 30.5307C275.116 28.1184 275.569 25.8945 276.511 23.9345C277.415 21.9369 278.772 20.3538 280.544 19.1853C282.315 17.9792 284.954 17.3761 288.459 17.3761H298.825V23.1053H289.025C286.989 23.1053 285.595 23.4445 284.765 24.123C283.974 24.8015 283.446 26.0453 283.295 27.8545H298.825L298.749 27.8169Z" fill="var(--fill-0, #232323)"/>
<path id="Vector_12" d="M327.622 17.3384V23.0676H314.505C312.846 23.0676 311.753 23.2184 311.225 23.5199C310.698 23.8215 310.434 24.4622 310.434 25.4046C310.434 26.4222 310.735 27.1007 311.414 27.4776C312.055 27.8546 313.336 28.0053 315.258 28.0053H319.593C322.533 28.0053 324.795 28.6838 326.415 30.003C328.036 31.3222 328.828 33.2446 328.828 35.6946C328.828 37.3907 328.413 38.9738 327.622 40.4061C326.83 41.8761 325.85 42.8561 324.719 43.3461C323.588 43.8738 321.515 44.0999 318.5 44.0999H303.235V38.3707H319.819C321.025 38.1822 321.628 37.4284 321.628 36.1092C321.628 35.0538 321.327 34.3376 320.724 33.9607C320.121 33.5838 318.915 33.433 317.181 33.433H312.658C310.886 33.433 309.529 33.3199 308.549 33.0938C307.569 32.8676 306.665 32.4153 305.798 31.7369C304.931 31.0584 304.215 30.1161 303.687 28.9099C303.122 27.7038 302.858 26.4222 302.858 25.0653C302.858 22.2761 303.536 20.3915 304.855 19.3361C306.212 18.3184 307.305 17.7153 308.172 17.5269C309.039 17.3384 310.283 17.263 311.904 17.263H327.659L327.622 17.3384Z" fill="var(--fill-0, #232323)"/>
</g>
<g id="Group_2">
<path id="Vector_13" d="M235.313 61.5892C235.313 59.8553 236.745 58.913 238.818 58.913C239.874 58.913 240.59 59.0638 241.344 59.2522V58.9507C241.344 57.4807 240.439 56.7269 238.894 56.7269C237.914 56.7269 237.16 56.9907 236.406 57.3299L236.029 56.3499C236.934 55.9353 237.801 55.6715 239.007 55.6715C240.213 55.6715 241.042 55.973 241.645 56.5761C242.211 57.1415 242.475 57.933 242.475 58.9507V63.9638H241.306V62.7199C240.741 63.4738 239.798 64.1146 238.328 64.1146C236.821 64.1146 235.275 63.2476 235.275 61.5515L235.313 61.5892ZM241.344 60.9484V60.1569C240.741 59.9684 239.949 59.8176 238.931 59.8176C237.386 59.8176 236.557 60.4961 236.557 61.5138C236.557 62.5692 237.499 63.1722 238.63 63.1722C240.138 63.1722 241.381 62.2676 241.381 60.9484H241.344Z" fill="var(--fill-0, #232323)"/>
<path id="Vector_14" d="M246.206 59.893C246.206 57.1792 248.166 55.5961 250.126 55.5961C251.634 55.5961 252.614 56.4253 253.255 57.3299V52.3922H254.461V63.9261H253.255V62.2676C252.576 63.2476 251.634 64.0769 250.126 64.0769C248.166 64.0769 246.206 62.5315 246.206 59.8553V59.893ZM253.292 59.893C253.292 57.9707 251.86 56.7269 250.352 56.7269C248.845 56.7269 247.488 57.8953 247.488 59.8553C247.488 61.8153 248.845 63.0592 250.352 63.0592C251.86 63.0592 253.292 61.7776 253.292 59.893Z" fill="var(--fill-0, #232323)"/>
<path id="Vector_15" d="M258.004 55.7845H259.361L262.112 62.5692L264.864 55.7845H266.183L262.64 64.0392H261.547L258.004 55.7845Z" fill="var(--fill-0, #232323)"/>
<path id="Vector_16" d="M268.708 59.8931C268.708 57.5561 270.518 55.5961 272.968 55.5961C275.418 55.5961 277.227 57.5184 277.227 59.8177C277.227 62.1546 275.418 64.1146 272.93 64.1146C270.442 64.1146 268.708 62.1923 268.708 59.8931ZM275.983 59.8931C275.983 58.1215 274.664 56.6515 272.93 56.6515C271.196 56.6515 269.952 58.0838 269.952 59.8177C269.952 61.5892 271.234 63.0215 272.968 63.0215C274.701 63.0215 275.983 61.5892 275.983 59.8931Z" fill="var(--fill-0, #232323)"/>
<path id="Vector_17" d="M280.506 59.8931C280.506 57.5561 282.315 55.5961 284.69 55.5961C286.235 55.5961 287.215 56.2369 287.969 57.0661L287.178 57.9331C286.537 57.2546 285.783 56.6892 284.69 56.6892C283.031 56.6892 281.75 58.0838 281.75 59.8554C281.75 61.6646 283.031 63.0592 284.765 63.0592C285.821 63.0592 286.612 62.5315 287.253 61.8531L288.045 62.5692C287.215 63.4738 286.235 64.1523 284.69 64.1523C282.315 64.1523 280.506 62.1923 280.506 59.9307V59.8931Z" fill="var(--fill-0, #232323)"/>
<path id="Vector_18" d="M291.022 61.5892C291.022 59.8553 292.454 58.913 294.528 58.913C295.583 58.913 296.299 59.0638 297.053 59.2522V58.9507C297.053 57.4807 296.148 56.7269 294.603 56.7269C293.623 56.7269 292.869 56.9907 292.115 57.3299L291.738 56.3499C292.643 55.9353 293.51 55.6715 294.716 55.6715C295.922 55.6715 296.751 55.973 297.354 56.5761C297.92 57.1415 298.184 57.933 298.184 58.9507V63.9638H297.015V62.7199C296.45 63.4738 295.508 64.1146 294.075 64.1146C292.568 64.1146 291.022 63.2476 291.022 61.5515V61.5892ZM297.053 60.9484V60.1569C296.45 59.9684 295.658 59.8176 294.641 59.8176C293.095 59.8176 292.266 60.4961 292.266 61.5138C292.266 62.5692 293.208 63.1722 294.339 63.1722C295.847 63.1722 297.091 62.2676 297.091 60.9484H297.053Z" fill="var(--fill-0, #232323)"/>
<path id="Vector_19" d="M301.915 59.8931C301.915 57.5561 303.725 55.5961 306.099 55.5961C307.645 55.5961 308.625 56.2369 309.378 57.0661L308.587 57.9331C307.946 57.2546 307.192 56.6892 306.099 56.6892C304.441 56.6892 303.159 58.0838 303.159 59.8554C303.159 61.6646 304.441 63.0592 306.175 63.0592C307.23 63.0592 308.021 62.5315 308.662 61.8531L309.454 62.5692C308.625 63.4738 307.645 64.1523 306.099 64.1523C303.725 64.1523 301.915 62.1923 301.915 59.9307V59.8931Z" fill="var(--fill-0, #232323)"/>
<path id="Vector_20" d="M313.072 52.6561H314.467V54.013H313.072V52.6561ZM313.148 55.7846H314.354V63.9638H313.148V55.7846Z" fill="var(--fill-0, #232323)"/>
<path id="Vector_21" d="M318.161 61.5892C318.161 59.8553 319.593 58.913 321.666 58.913C322.721 58.913 323.438 59.0638 324.191 59.2522V58.9507C324.191 57.4807 323.287 56.7269 321.741 56.7269C320.761 56.7269 320.008 56.9907 319.254 57.3299L318.877 56.3499C319.781 55.9353 320.648 55.6715 321.854 55.6715C323.061 55.6715 323.89 55.973 324.493 56.5761C325.058 57.1415 325.322 57.933 325.322 58.9507V63.9638H324.154V62.7199C323.588 63.4738 322.646 64.1146 321.214 64.1146C319.706 64.1146 318.161 63.2476 318.161 61.5515V61.5892ZM324.191 60.9484V60.1569C323.588 59.9684 322.797 59.8176 321.779 59.8176C320.234 59.8176 319.404 60.4961 319.404 61.5138C319.404 62.5692 320.347 63.1722 321.478 63.1722C322.985 63.1722 324.229 62.2676 324.229 60.9484H324.191Z" fill="var(--fill-0, #232323)"/>
</g>
</g>
</svg>
